<svg version="1.0" xmlns="http://www.w3.org/2000/svg" width="512.000000pt" height="512.000000pt" viewBox="0 0 512.000000 512.000000" preserveAspectRatio="xMidYMid meet">
<metadata>
Created by potrace 1.16, written by Peter Selinger 2001-2019
</metadata>
<g transform="translate(0.000000,512.000000) scale(0.100000,-0.100000)" fill="#cccccc" stroke="none">
<path d="M1056 4249 c-214 -31 -426 -135 -588 -287 -453 -425 -460 -1147 -15
-1579 98 -95 178 -150 303 -210 96 -45 260 -93 321 -93 l35 0 -23 -37 c-48
-82 -137 -192 -220 -274 -98 -98 -189 -169 -363 -284 -135 -89 -177 -135 -202
-222 -42 -145 25 -299 161 -371 42 -22 63 -26 130 -27 71 0 90 4 155 34 200
91 454 244 625 378 592 462 902 1055 932 1785 9 236 -20 402 -101 574 -127
269 -345 467 -616 562 -159 56 -367 75 -534 51z" fill="#cccccc"></path>
<path d="M3722 4246 c-227 -44 -406 -134 -566 -286 -107 -102 -168 -184 -232
-315 -277 -564 -26 -1242 550 -1487 78 -33 243 -78 287 -78 16 0 29 -4 29 -8
0 -12 -69 -116 -109 -167 -52 -65 -181 -193 -256 -255 -62 -50 -109 -83 -308
-214 -88 -58 -137 -151 -137 -262 0 -124 66 -231 175 -284 41 -20 65 -25 132
-25 l81 0 164 82 c581 290 1004 696 1239 1188 131 274 197 535 220 869 21 312
-21 520 -149 740 -65 112 -246 293 -358 358 -98 58 -205 101 -315 129 -109 27
-342 35 -447 15z" fill="#cccccc"></path>
</g>
</svg>